<?xml version="1.0" encoding="UTF-8" standalone="no"?>
<svg
   width="1440"
   height="327"
   viewBox="0 0 1440 327"
   fill="none"
   version="1.1"
   id="svg378"
   sodipodi:docname="forward-icon.svg"
   inkscape:version="1.2.1 (9c6d41e410, 2022-07-14)"
   xmlns:inkscape="http://www.inkscape.org/namespaces/inkscape"
   xmlns:sodipodi="http://sodipodi.sourceforge.net/DTD/sodipodi-0.dtd"
   xmlns="http://www.w3.org/2000/svg"
   xmlns:svg="http://www.w3.org/2000/svg">
  <defs
     id="defs382" />
  <sodipodi:namedview
     id="namedview380"
     pagecolor="#ffffff"
     bordercolor="#000000"
     borderopacity="0.25"
     inkscape:showpageshadow="2"
     inkscape:pageopacity="0.0"
     inkscape:pagecheckerboard="0"
     inkscape:deskcolor="#d1d1d1"
     showgrid="false"
     inkscape:zoom="0.90972222"
     inkscape:cx="720"
     inkscape:cy="164.33588"
     inkscape:window-width="1920"
     inkscape:window-height="991"
     inkscape:window-x="-9"
     inkscape:window-y="-9"
     inkscape:window-maximized="1"
     inkscape:current-layer="svg378" />
  <rect
     width="1440"
     height="327"
     fill="#F2F2F2"
     id="rect308" />
  <rect
     width="1440"
     height="327"
     fill="white"
     id="rect310" />
  <g
     id="g544">
    <path
       d="M752 280C763.046 280 772 271.046 772 260C772 248.954 763.046 240 752 240C740.954 240 732 248.954 732 260C732 271.046 740.954 280 752 280Z"
       fill="#5A31FC"
       id="path312" />
    <path
       d="M757.569 260.568L748.517 269.619C747.941 270.195 747.008 270.195 746.432 269.619C745.856 269.043 745.856 268.11 746.432 267.534L754.441 259.525L746.432 251.516C745.863 250.939 745.867 250.011 746.44 249.439C747.013 248.866 747.94 248.863 748.517 249.432L757.569 258.484C758.144 259.06 758.144 259.992 757.569 260.568V260.568Z"
       fill="white"
       id="path314" />
  </g>
</svg>
